<?xml version="1.0" encoding="UTF-8" standalone="no"?>
<!DOCTYPE svg PUBLIC "-//W3C//DTD SVG 1.1//EN" "http://www.w3.org/Graphics/SVG/1.1/DTD/svg11.dtd">
<svg width="100%" height="100%" viewBox="0 0 148 132" version="1.1" xmlns="http://www.w3.org/2000/svg" xmlns:xlink="http://www.w3.org/1999/xlink" xml:space="preserve" xmlns:serif="http://www.serif.com/" style="fill-rule:evenodd;clip-rule:evenodd;stroke-linecap:round;stroke-linejoin:round;stroke-miterlimit:1.5;">
    <g transform="matrix(1,0,0,1,-843.361,-549.387)">
        <g transform="matrix(1,0,0,1,-90,250)">
            <g id="Hammer">
                <g transform="matrix(0.248762,0,0,0.248762,882.923,240.742)">
                    <path d="M267.012,457.843L204.768,395.599L230.027,369.831C230.027,369.831 232.558,366.267 246.355,364.669C262.005,362.856 263.14,365.33 275.234,355.038C288.547,343.709 288.859,310.171 288.859,310.171C288.859,310.171 343.345,254.494 407.98,241.171C475.33,227.288 542.094,260.25 542.094,260.25L540.322,272.268L492.247,271.547C492.247,271.547 427.375,277.468 417.207,291.405C409.407,302.097 411.757,308.537 416.367,316.589C423.628,329.269 437.176,345.741 437.176,345.741L378.41,404.507C378.41,404.507 348.499,376.715 326.988,378.913C311.581,380.487 305.957,386.71 301.195,396.128C296.434,405.546 295.724,430.539 295.388,431.051C295.052,431.563 267.012,457.843 267.012,457.843Z" style="stroke:black;stroke-width:4.02px;"/>
                </g>
                <g transform="matrix(0.248762,0,0,0.248762,882.923,240.742)">
                    <path d="M407.77,423.483L719.287,758.147C719.287,758.147 729.984,769.435 740.824,758.77C753.862,745.943 793.669,705.838 793.669,705.838C793.669,705.838 798.612,697.801 789.821,688.358C781.168,679.064 455.855,375.125 455.855,375.125L407.77,423.483Z" style="stroke:black;stroke-width:4.02px;"/>
                </g>
            </g>
        </g>
    </g>
</svg>
