<?xml version="1.0" encoding="UTF-8" standalone="no"?>
<!DOCTYPE svg PUBLIC "-//W3C//DTD SVG 1.1//EN" "http://www.w3.org/Graphics/SVG/1.1/DTD/svg11.dtd">
<svg width="100%" height="100%" viewBox="0 0 48 59" version="1.1" xmlns="http://www.w3.org/2000/svg" xmlns:xlink="http://www.w3.org/1999/xlink" xml:space="preserve" xmlns:serif="http://www.serif.com/" style="fill-rule:evenodd;clip-rule:evenodd;stroke-linejoin:round;stroke-miterlimit:2;">
    <g transform="matrix(1,0,0,1,-956,-445)">
        <g transform="matrix(1,0,0,1,-90,250)">
            <g id="Admin">
                <g transform="matrix(0.749536,0,0,0.749536,335.162,-136.137)">
                    <path d="M980.39,441.789C991.435,441.789 1000.4,450.756 1000.4,461.801C1000.4,472.847 991.435,481.814 980.39,481.814C969.345,481.814 960.378,472.847 960.378,461.801C960.378,450.756 969.345,441.789 980.39,441.789ZM980.39,447.126C972.29,447.126 965.714,453.702 965.714,461.801C965.714,469.901 972.29,476.477 980.39,476.477C988.49,476.477 995.066,469.901 995.066,461.801C995.066,453.702 988.49,447.126 980.39,447.126Z"/>
                </g>
                <g transform="matrix(0.601669,0,0,0.601669,479.728,-69.7164)">
                    <circle cx="981.059" cy="498.142" r="33.241" style="fill:white;"/>
                    <path d="M981.059,458.253C1003.07,458.253 1020.95,476.127 1020.95,498.142C1020.95,520.157 1003.07,538.031 981.059,538.031C959.043,538.031 941.17,520.157 941.17,498.142C941.17,476.127 959.043,458.253 981.059,458.253ZM981.059,464.901C962.712,464.901 947.818,479.796 947.818,498.142C947.818,516.488 962.712,531.383 981.059,531.383C999.405,531.383 1014.3,516.488 1014.3,498.142C1014.3,479.796 999.405,464.901 981.059,464.901Z"/>
                </g>
                <g transform="matrix(1.47849,0,0,1.29817,-379.826,-405.948)">
                    <ellipse cx="980.614" cy="489.879" rx="6.764" ry="7.703"/>
                </g>
            </g>
        </g>
    </g>
</svg>
