<?xml version="1.0" encoding="UTF-8" standalone="no"?>
<!DOCTYPE svg PUBLIC "-//W3C//DTD SVG 1.1//EN" "http://www.w3.org/Graphics/SVG/1.1/DTD/svg11.dtd">
<svg width="100%" height="100%" viewBox="0 0 45 46" version="1.1" xmlns="http://www.w3.org/2000/svg" xmlns:xlink="http://www.w3.org/1999/xlink" xml:space="preserve" xmlns:serif="http://www.serif.com/" style="fill-rule:evenodd;clip-rule:evenodd;stroke-linejoin:round;stroke-miterlimit:2;">
    <g transform="matrix(1,0,0,1,-530.453,-602.063)">
        <g id="Bell">
            <g transform="matrix(1,0,0,1,-1.56851,-1.214)">
                <circle cx="556.334" cy="608.298" r="5.021"/>
            </g>
            <g transform="matrix(1,0,0,1,-1.56851,33.7996)">
                <path d="M561.355,608.298C561.355,611.069 559.105,613.319 556.334,613.319C553.563,613.319 551.313,611.069 551.313,608.298"/>
            </g>
            <g transform="matrix(1,0,0,1,-1.46315,33.8043)">
                <path d="M551.313,608.298C553.726,608.283 558.018,608.309 561.355,608.298"/>
            </g>
            <g transform="matrix(2.49361,0,0,2.47599,-832.409,-887.905)">
                <circle cx="556.334" cy="608.298" r="5.021"/>
            </g>
            <g transform="matrix(2.49361,0,0,2.47599,-832.409,-887.905)">
                <circle cx="556.334" cy="608.298" r="5.021"/>
            </g>
            <path d="M542.351,616.279C542.351,616.279 541.897,618.713 541.865,621.537C541.833,624.361 541.764,626.123 540.197,628.447C538.63,630.772 536.958,632.478 535.774,633.674C534.589,634.871 534.515,635.93 534.5,637.291C534.484,638.652 534.458,639.54 534.458,639.54C534.458,639.54 534.346,640.259 535.193,640.296C536.04,640.332 554.871,640.296 554.871,640.296L554.766,616.131"/>
            <g transform="matrix(-1,0,0,1,1109.64,0)">
                <path d="M542.351,616.279C542.351,616.279 541.897,618.713 541.865,621.537C541.833,624.361 541.764,626.123 540.197,628.447C538.63,630.772 536.958,632.478 535.774,633.674C534.589,634.871 534.515,635.93 534.5,637.291C534.484,638.652 534.458,639.54 534.458,639.54C534.458,639.54 534.346,640.259 535.193,640.296C536.04,640.332 554.871,640.296 554.871,640.296L554.766,616.131"/>
            </g>
        </g>
        <g transform="matrix(0.911769,0,0,0.911769,44.5873,52.5693)">
            <circle cx="546.044" cy="618.601" r="8.774" style="fill:rgb(255,0,0);"/>
            <path d="M546.044,605.44C553.308,605.44 559.205,611.338 559.205,618.601C559.205,625.865 553.308,631.763 546.044,631.763C538.78,631.763 532.883,625.865 532.883,618.601C532.883,611.338 538.78,605.44 546.044,605.44ZM546.044,609.827C541.202,609.827 537.27,613.759 537.27,618.601C537.27,623.444 541.202,627.376 546.044,627.376C550.887,627.376 554.818,623.444 554.818,618.601C554.818,613.759 550.887,609.827 546.044,609.827Z" style="fill:white;"/>
        </g>
    </g>
</svg>
