<?xml version="1.0" encoding="UTF-8" standalone="no"?>
<!DOCTYPE svg PUBLIC "-//W3C//DTD SVG 1.1//EN" "http://www.w3.org/Graphics/SVG/1.1/DTD/svg11.dtd">
<svg width="100%" height="100%" viewBox="0 0 63 63" version="1.1" xmlns="http://www.w3.org/2000/svg" xmlns:xlink="http://www.w3.org/1999/xlink" xml:space="preserve" xmlns:serif="http://www.serif.com/" style="fill-rule:evenodd;clip-rule:evenodd;stroke-linejoin:round;stroke-miterlimit:2;">
    <g transform="matrix(1,0,0,1,-691.59,-776.543)">
        <g transform="matrix(1,0,0,1,-90,250)">
            <g id="Stop">
                <g transform="matrix(1.06817,-0.431568,0.431568,1.06817,-312.43,3.48149)">
                    <path d="M725.293,782.719L745.855,791.236L754.372,811.797L745.855,832.359L725.293,840.876L704.732,832.359L696.215,811.797L704.732,791.236L725.293,782.719Z"/>
                    <path d="M725.293,782.719L745.855,791.236L754.372,811.797L745.855,832.359L725.293,840.876L704.732,832.359L696.215,811.797L704.732,791.236L725.293,782.719ZM725.293,786.477L707.389,793.893L699.973,811.797L707.389,829.702L725.293,837.118L743.197,829.702L750.614,811.797L743.197,793.893L725.293,786.477Z"/>
                </g>
                <g transform="matrix(0.956722,0,0,0.956722,122.174,-215.165)">
                    <path d="M705.578,826.73C705.578,820.794 705.522,801.979 705.522,795.233C705.522,791.753 709.443,791.753 709.443,795.233C709.443,798.713 709.586,805.909 709.586,805.909L711.126,805.909L711.126,789.357C711.126,784.545 716.643,784.545 716.643,789.357C716.643,798.303 716.698,804.11 716.698,804.11L718.498,804.11C718.498,804.11 718.665,790.006 718.665,785.36C718.665,780.54 724.115,780.661 724.115,785.36C724.115,793.163 724.43,804.123 724.43,804.123L726.126,804.042C726.126,804.042 726.225,792.806 726.225,789.306C726.225,783.597 731.931,783.597 731.931,789.306C731.931,797.081 732.103,811.732 732.103,811.732C732.103,811.732 733.499,811.977 733.879,811.517C734.899,810.283 735.587,808.681 738.224,804.326C739.916,801.533 745.972,801.619 742.217,809.402C736.471,821.313 732.318,828.971 732.318,828.971C732.318,828.971 712.446,829.412 707.989,829.039C706.88,828.946 705.578,827.843 705.578,826.73Z" style="fill:white;"/>
                </g>
            </g>
        </g>
    </g>
</svg>
