<?xml version="1.0" encoding="UTF-8" standalone="no"?>
<!DOCTYPE svg PUBLIC "-//W3C//DTD SVG 1.1//EN" "http://www.w3.org/Graphics/SVG/1.1/DTD/svg11.dtd">
<svg width="100%" height="100%" viewBox="0 0 32 54" version="1.1" xmlns="http://www.w3.org/2000/svg" xmlns:xlink="http://www.w3.org/1999/xlink" xml:space="preserve" xmlns:serif="http://www.serif.com/" style="fill-rule:evenodd;clip-rule:evenodd;stroke-linejoin:round;stroke-miterlimit:2;">
    <g transform="matrix(1,0,0,1,-754,-550)">
        <g transform="matrix(1,0,0,1,-90,250)">
            <g id="Watch">
                <g transform="matrix(1.07053,0,0,0.858989,35.7123,-180.958)">
                    <rect x="760.638" y="559.911" width="18.682" height="62.865"/>
                </g>
                <g transform="matrix(1.03606,0,0,0.843632,62.5816,-164.241)">
                    <path d="M783.175,572.811L783.175,591.776C783.175,596.356 780.148,600.074 776.419,600.074L762.906,600.074C759.177,600.074 756.15,596.356 756.15,591.776L756.15,572.811C756.15,568.231 759.177,564.513 762.906,564.513L776.419,564.513C780.148,564.513 783.175,568.231 783.175,572.811Z" style="fill:white;"/>
                    <path d="M785.105,572.811L785.105,591.776C785.105,597.664 781.213,602.444 776.419,602.444L762.906,602.444C758.112,602.444 754.219,597.664 754.219,591.776L754.219,572.811C754.219,566.923 758.112,562.142 762.906,562.142L776.419,562.142C781.213,562.142 785.105,566.923 785.105,572.811ZM783.175,572.811C783.175,568.231 780.148,564.513 776.419,564.513L762.906,564.513C759.177,564.513 756.15,568.231 756.15,572.811L756.15,591.776C756.15,596.356 759.177,600.074 762.906,600.074L776.419,600.074C780.148,600.074 783.175,596.356 783.175,591.776L783.175,572.811Z"/>
                </g>
                <g transform="matrix(0.467672,0,0,0.525017,499.84,21.3923)">
                    <rect x="767.974" y="566.853" width="4.277" height="19.047"/>
                </g>
                <g transform="matrix(2.86367e-17,0.467672,-0.525017,3.2148e-17,1166.64,-32.1791)">
                    <rect x="767.974" y="566.853" width="4.277" height="19.047"/>
                </g>
            </g>
        </g>
    </g>
</svg>
