<?xml version="1.0" encoding="UTF-8" standalone="no"?>
<!DOCTYPE svg PUBLIC "-//W3C//DTD SVG 1.1//EN" "http://www.w3.org/Graphics/SVG/1.1/DTD/svg11.dtd">
<svg width="100%" height="100%" viewBox="0 0 52 33" version="1.1" xmlns="http://www.w3.org/2000/svg" xmlns:xlink="http://www.w3.org/1999/xlink" xml:space="preserve" xmlns:serif="http://www.serif.com/" style="fill-rule:evenodd;clip-rule:evenodd;stroke-linejoin:round;stroke-miterlimit:2;">
    <g transform="matrix(1,0,0,1,-1295.49,-809.71)">
        <g transform="matrix(1,0,0,1,-90,250)">
            <g id="Previous-Track" serif:id="Previous Track" transform="matrix(-0.852412,0,0,0.852412,2703.1,68.2847)">
                <g id="Play" transform="matrix(6.12323e-17,1,-0.895074,5.48075e-17,2240.86,-795.797)">
                    <path d="M1389.51,810.358C1389.87,809.632 1390.56,809.181 1391.3,809.181C1392.05,809.181 1392.73,809.632 1393.1,810.358C1396.75,817.665 1405.01,834.176 1408.59,841.336C1408.94,842.047 1408.93,842.916 1408.56,843.619C1408.19,844.322 1407.52,844.754 1406.79,844.753C1399.56,844.753 1383.05,844.753 1375.81,844.753C1375.08,844.754 1374.41,844.322 1374.04,843.619C1373.67,842.916 1373.66,842.047 1374.02,841.336C1377.6,834.176 1385.85,817.665 1389.51,810.358Z"/>
                </g>
                <g id="Play1" serif:id="Play" transform="matrix(6.12323e-17,1,-0.895074,5.48075e-17,2267.86,-795.797)">
                    <path d="M1389.51,810.358C1389.87,809.632 1390.56,809.181 1391.3,809.181C1392.05,809.181 1392.73,809.632 1393.1,810.358C1396.75,817.665 1405.01,834.176 1408.59,841.336C1408.94,842.047 1408.93,842.916 1408.56,843.619C1408.19,844.322 1407.52,844.754 1406.79,844.753C1399.56,844.753 1383.05,844.753 1375.81,844.753C1375.08,844.754 1374.41,844.322 1374.04,843.619C1373.67,842.916 1373.66,842.047 1374.02,841.336C1377.6,834.176 1385.85,817.665 1389.51,810.358Z"/>
                </g>
            </g>
        </g>
    </g>
</svg>
