<?xml version="1.0" encoding="UTF-8" standalone="no"?>
<!DOCTYPE svg PUBLIC "-//W3C//DTD SVG 1.1//EN" "http://www.w3.org/Graphics/SVG/1.1/DTD/svg11.dtd">
<svg width="100%" height="100%" viewBox="0 0 55 36" version="1.1" xmlns="http://www.w3.org/2000/svg" xmlns:xlink="http://www.w3.org/1999/xlink" xml:space="preserve" xmlns:serif="http://www.serif.com/" style="fill-rule:evenodd;clip-rule:evenodd;stroke-linecap:round;stroke-linejoin:round;stroke-miterlimit:3;">
    <g transform="matrix(1,0,0,1,-1500.21,-809.245)">
        <g transform="matrix(1,0,0,1,-90,250)">
            <g id="Repeat" transform="matrix(1,0,0,1,7.92839,-6.41927)">
                <g id="Top">
                    <g transform="matrix(1,0,0,1,90,-250)">
                        <path d="M1501.92,824.151L1536.88,824.151C1536.88,824.151 1542.78,824.146 1542.78,832.446" style="fill:none;stroke:black;stroke-width:4px;"/>
                    </g>
                    <g id="Play" transform="matrix(-2.7364e-17,0.446888,0.399998,2.44928e-17,1259.57,-47.6051)">
                        <path d="M1387.88,813.617C1388.57,812.231 1389.88,811.372 1391.3,811.372C1392.72,811.372 1394.03,812.231 1394.73,813.617C1398.22,820.604 1403.6,831.368 1407.04,838.234C1407.71,839.591 1407.7,841.248 1406.99,842.589C1406.29,843.93 1405,844.754 1403.61,844.753C1396.68,844.753 1385.92,844.753 1378.99,844.753C1377.6,844.754 1376.32,843.93 1375.61,842.589C1374.91,841.248 1374.89,839.591 1375.57,838.234C1379,831.368 1384.38,820.604 1387.88,813.617Z"/>
                    </g>
                </g>
                <g id="Top1" serif:id="Top" transform="matrix(-1,0,0,-1,3218.96,1167.22)">
                    <g transform="matrix(1,0,0,1,90,-250)">
                        <path d="M1501.92,824.151L1536.88,824.151C1536.88,824.151 1542.78,824.146 1542.78,832.446" style="fill:none;stroke:black;stroke-width:4px;"/>
                    </g>
                    <g id="Play1" serif:id="Play" transform="matrix(-2.7364e-17,0.446888,0.399998,2.44928e-17,1259.57,-47.6051)">
                        <path d="M1387.88,813.617C1388.57,812.231 1389.88,811.372 1391.3,811.372C1392.72,811.372 1394.03,812.231 1394.73,813.617C1398.22,820.604 1403.6,831.368 1407.04,838.234C1407.71,839.591 1407.7,841.248 1406.99,842.589C1406.29,843.93 1405,844.754 1403.61,844.753C1396.68,844.753 1385.92,844.753 1378.99,844.753C1377.6,844.754 1376.32,843.93 1375.61,842.589C1374.91,841.248 1374.89,839.591 1375.57,838.234C1379,831.368 1384.38,820.604 1387.88,813.617Z"/>
                    </g>
                </g>
            </g>
        </g>
    </g>
</svg>
