<?xml version="1.0" encoding="UTF-8" standalone="no"?>
<!DOCTYPE svg PUBLIC "-//W3C//DTD SVG 1.1//EN" "http://www.w3.org/Graphics/SVG/1.1/DTD/svg11.dtd">
<svg width="100%" height="100%" viewBox="0 0 49 31" version="1.1" xmlns="http://www.w3.org/2000/svg" xmlns:xlink="http://www.w3.org/1999/xlink" xml:space="preserve" xmlns:serif="http://www.serif.com/" style="fill-rule:evenodd;clip-rule:evenodd;stroke-linecap:round;stroke-linejoin:round;stroke-miterlimit:3;">
    <g transform="matrix(1,0,0,1,-1222.86,-809.518)">
        <g transform="matrix(1,0,0,1,-90,250)">
            <g id="Repeat" transform="matrix(1,0,0,1,20.25,4.50977)">
                <g id="Bottom">
                    <g transform="matrix(1,0,0,1,90,-250)">
                        <path d="M1204.67,811.985L1210.33,811.985C1218.97,811.985 1220.64,828 1229.27,828L1239.53,828" style="fill:none;stroke:black;stroke-width:4px;"/>
                    </g>
                    <g id="Play" transform="matrix(-2.41622e-17,-0.394598,-0.353195,2.16269e-17,1626.28,1127.01)">
                        <path d="M1387.42,814.524C1388.21,812.954 1389.69,811.982 1391.3,811.982C1392.91,811.982 1394.39,812.954 1395.18,814.524C1398.52,821.21 1403.32,830.795 1406.6,837.37C1407.37,838.907 1407.35,840.784 1406.56,842.302C1405.76,843.821 1404.3,844.753 1402.73,844.753C1396.1,844.753 1386.51,844.753 1379.88,844.753C1378.3,844.753 1376.85,843.821 1376.05,842.302C1375.25,840.784 1375.23,838.907 1376,837.37C1379.29,830.795 1384.08,821.21 1387.42,814.524Z"/>
                    </g>
                </g>
                <g id="Top" transform="matrix(1,0,0,-1,-0.0631087,1140.51)">
                    <g transform="matrix(1,0,0,1,90,-250)">
                        <path d="M1204.67,811.985L1210.33,811.985C1218.97,811.985 1220.64,828 1229.27,828L1239.53,828" style="fill:none;stroke:black;stroke-width:4px;"/>
                    </g>
                    <g id="Play1" serif:id="Play" transform="matrix(-2.41622e-17,-0.394598,-0.353195,2.16269e-17,1626.28,1127.01)">
                        <path d="M1387.42,814.524C1388.21,812.954 1389.69,811.982 1391.3,811.982C1392.91,811.982 1394.39,812.954 1395.18,814.524C1398.52,821.21 1403.32,830.795 1406.6,837.37C1407.37,838.907 1407.35,840.784 1406.56,842.302C1405.76,843.821 1404.3,844.753 1402.73,844.753C1396.1,844.753 1386.51,844.753 1379.88,844.753C1378.3,844.753 1376.85,843.821 1376.05,842.302C1375.25,840.784 1375.23,838.907 1376,837.37C1379.29,830.795 1384.08,821.21 1387.42,814.524Z"/>
                    </g>
                </g>
            </g>
        </g>
    </g>
</svg>
