<?xml version="1.0" encoding="UTF-8" standalone="no"?>
<!DOCTYPE svg PUBLIC "-//W3C//DTD SVG 1.1//EN" "http://www.w3.org/Graphics/SVG/1.1/DTD/svg11.dtd">
<svg width="100%" height="100%" viewBox="0 0 146 102" version="1.1" xmlns="http://www.w3.org/2000/svg" xmlns:xlink="http://www.w3.org/1999/xlink" xml:space="preserve" xmlns:serif="http://www.serif.com/" style="fill-rule:evenodd;clip-rule:evenodd;stroke-linecap:round;stroke-linejoin:round;stroke-miterlimit:1.5;">
    <g transform="matrix(1,0,0,1,-809.835,-694.032)">
        <g transform="matrix(1,0,0,1,-90,250)">
            <g id="Character" transform="matrix(0.333903,0,0,0.333903,805.691,327.76)">
                <path d="M499.878,526.113C499.878,526.113 495.722,517.616 475.456,518.963C446.378,520.896 414.697,538.018 396.042,560.277C377.388,582.537 357.361,609.625 346.357,613.123C334.932,616.755 320.501,619.668 307.659,606.986C294.818,594.305 289.023,570.967 304.644,556.768C320.265,542.568 284.577,561.802 283.538,584.648C282.499,607.493 290.002,637.508 326.379,647.091C353.979,654.361 373.165,646.154 376.328,644.784C388.49,639.517 413.47,622.02 427.539,611.027C439.739,601.494 460.703,594.774 472.363,594.074C484.022,593.374 499.756,587.483 500.787,584.504C501.818,581.525 499.878,526.113 499.878,526.113Z" style="stroke:black;stroke-width:2.99px;"/>
                <g transform="matrix(-1,0,0,1,1000.34,0.0117188)">
                    <path d="M499.878,526.113C499.878,526.113 495.722,517.616 475.456,518.963C446.378,520.896 414.697,538.018 396.042,560.277C377.388,582.537 357.361,609.625 346.357,613.123C334.932,616.755 320.501,619.668 307.659,606.986C294.818,594.305 289.023,570.967 304.644,556.768C320.265,542.568 284.577,561.802 283.538,584.648C282.499,607.493 290.002,637.508 326.379,647.091C353.979,654.361 373.165,646.154 376.328,644.784C388.49,639.517 413.47,622.02 427.539,611.027C439.739,601.494 460.703,594.774 472.363,594.074C484.022,593.374 499.756,587.483 500.787,584.504C501.818,581.525 499.878,526.113 499.878,526.113Z" style="stroke:black;stroke-width:2.99px;"/>
                </g>
                <path d="M373.801,350.278C373.801,350.278 337.942,351.968 322.616,363.521C306.714,375.507 299.823,390.41 298.192,402.725C296.56,415.04 296.449,427.226 298.023,440.095C299.357,451.006 305.087,466.247 314.977,479.672C324.523,492.631 338.668,510.432 367.416,510.693C393.636,510.93 403.525,507.076 412.971,501.729C440.767,485.997 455.071,468.806 470.047,439.937C479.422,421.865 481.769,404.805 481.774,392.987C481.777,384.171 489.596,377.07 499.293,376.898C508.153,376.741 516.655,381.091 517.426,390.894C518.09,399.348 517.586,414.79 528.647,437.319C535.165,450.593 543.582,472.561 580.481,497.764C604.327,514.052 627.563,512.147 639.813,509.599C655.398,506.356 668.993,500.821 682.814,483.566C695.96,467.154 701.165,444.069 702.568,432.086C703.487,424.239 704.58,410.054 700.619,397.695C696.658,385.336 686.172,353.555 641.537,351.18C596.901,348.805 621.809,350.06 592.415,349.989C563.022,349.919 373.801,350.278 373.801,350.278Z" style="stroke:black;stroke-width:2.99px;"/>
            </g>
        </g>
    </g>
</svg>
