<?xml version="1.0" encoding="UTF-8" standalone="no"?>
<!DOCTYPE svg PUBLIC "-//W3C//DTD SVG 1.1//EN" "http://www.w3.org/Graphics/SVG/1.1/DTD/svg11.dtd">
<svg width="100%" height="100%" viewBox="0 0 64 64" version="1.1" xmlns="http://www.w3.org/2000/svg" xmlns:xlink="http://www.w3.org/1999/xlink" xml:space="preserve" xmlns:serif="http://www.serif.com/" style="fill-rule:evenodd;clip-rule:evenodd;stroke-linecap:round;stroke-linejoin:round;stroke-miterlimit:3;">
    <g transform="matrix(1,0,0,1,-559.653,-866.068)">
        <g transform="matrix(1,0,0,1,-90,250)">
            <g id="Face" transform="matrix(1,0,0,1,-27.5792,23.6395)">
                <g transform="matrix(1.14744,0,0,1.14744,1.02186,-382.58)">
                    <circle cx="617.208" cy="877.612" r="27.888" style="fill:white;"/>
                    <path d="M617.208,849.724C632.6,849.724 645.096,862.22 645.096,877.612C645.096,893.004 632.6,905.5 617.208,905.5C601.816,905.5 589.32,893.004 589.32,877.612C589.32,862.22 601.816,849.724 617.208,849.724ZM617.208,854.953C604.702,854.953 594.549,865.106 594.549,877.612C594.549,890.118 604.702,900.271 617.208,900.271C629.714,900.271 639.867,890.118 639.867,877.612C639.867,865.106 629.714,854.953 617.208,854.953Z"/>
                </g>
                <g id="Eye">
                    <g transform="matrix(0.982223,0,0,0.982223,100.615,-234.698)">
                        <circle cx="607.273" cy="870.96" r="10.181" style="fill:white;"/>
                        <path d="M607.273,860.779C612.892,860.779 617.454,865.341 617.454,870.96C617.454,876.579 612.892,881.141 607.273,881.141C601.654,881.141 597.092,876.579 597.092,870.96C597.092,865.341 601.654,860.779 607.273,860.779ZM607.273,864.851C603.902,864.851 601.165,867.588 601.165,870.96C601.165,874.331 603.902,877.068 607.273,877.068C610.645,877.068 613.382,874.331 613.382,870.96C613.382,867.588 610.645,864.851 607.273,864.851Z"/>
                    </g>
                    <g transform="matrix(1.24663,0,0,1.4547,-58.1706,-646.702)">
                        <path d="M597.025,871.253C597.025,873.654 598.572,873.706 599.478,873.706C600.383,873.706 601.825,873.478 601.825,871.359" style="fill:none;stroke:white;stroke-width:1.48px;"/>
                    </g>
                    <g transform="matrix(1.24663,0,0,1.4547,-42.1547,-646.702)">
                        <path d="M597.025,871.253C597.025,873.654 598.572,873.706 599.478,873.706C600.383,873.706 601.825,873.478 601.825,871.359" style="fill:none;stroke:white;stroke-width:1.48px;"/>
                    </g>
                    <g transform="matrix(1,0,0,1.23534,90.2391,-455.571)">
                        <path d="M596.521,875.383L606.881,872.052L617.258,875.222L607.088,881.934L596.521,875.383Z" style="fill:white;"/>
                    </g>
                </g>
                <g id="Eye1" serif:id="Eye" transform="matrix(1,0,0,1,24.023,0)">
                    <g transform="matrix(0.982223,0,0,0.982223,100.615,-234.698)">
                        <circle cx="607.273" cy="870.96" r="10.181" style="fill:white;"/>
                        <path d="M607.273,860.779C612.892,860.779 617.454,865.341 617.454,870.96C617.454,876.579 612.892,881.141 607.273,881.141C601.654,881.141 597.092,876.579 597.092,870.96C597.092,865.341 601.654,860.779 607.273,860.779ZM607.273,864.851C603.902,864.851 601.165,867.588 601.165,870.96C601.165,874.331 603.902,877.068 607.273,877.068C610.645,877.068 613.382,874.331 613.382,870.96C613.382,867.588 610.645,864.851 607.273,864.851Z"/>
                    </g>
                    <g transform="matrix(1.24663,0,0,1.4547,-58.1706,-646.702)">
                        <path d="M597.025,871.253C597.025,873.654 598.572,873.706 599.478,873.706C600.383,873.706 601.825,873.478 601.825,871.359" style="fill:none;stroke:white;stroke-width:1.48px;"/>
                    </g>
                    <g transform="matrix(1.24663,0,0,1.4547,-42.1547,-646.702)">
                        <path d="M597.025,871.253C597.025,873.654 598.572,873.706 599.478,873.706C600.383,873.706 601.825,873.478 601.825,871.359" style="fill:none;stroke:white;stroke-width:1.48px;"/>
                    </g>
                    <g transform="matrix(1,0,0,1.23534,90.2391,-455.571)">
                        <path d="M596.521,875.383L606.881,872.052L617.258,875.222L607.088,881.934L596.521,875.383Z" style="fill:white;"/>
                    </g>
                </g>
                <g id="Mouth" transform="matrix(1.35956,4.4034e-17,-4.4034e-17,-1,-238.518,1255.76)">
                    <g transform="matrix(0.982223,0,0,0.982223,100.615,-234.698)">
                        <circle cx="607.273" cy="870.96" r="10.181" style="fill:white;"/>
                        <path d="M607.273,860.779C601.654,860.779 597.092,865.341 597.092,870.96C597.092,876.579 601.654,881.141 607.273,881.141C612.892,881.141 617.454,876.579 617.454,870.96C617.454,865.341 612.892,860.779 607.273,860.779ZM607.273,864.851C609.386,864.851 611.311,865.657 612.696,867.043C613.72,868.067 614.459,869.398 614.459,870.96C614.459,872.521 613.72,873.853 612.696,874.877C611.311,876.262 609.386,877.068 607.273,877.068C605.161,877.068 603.236,876.262 601.85,874.877C600.826,873.853 600.088,872.521 600.088,870.96C600.088,869.398 600.826,868.067 601.85,867.043C603.236,865.657 605.161,864.851 607.273,864.851Z"/>
                    </g>
                    <g transform="matrix(0.892456,0.325117,-0.276931,1.40514,395.031,-800.081)">
                        <path d="M597.025,871.253C597.025,873.654 598.572,873.706 599.478,873.706C600.383,873.706 601.825,873.478 601.825,871.359" style="fill:none;stroke:white;stroke-width:1.47px;"/>
                    </g>
                    <g transform="matrix(0.865327,-0.434303,0.348159,1.28223,-116.744,-238.196)">
                        <path d="M597.025,871.253C597.025,873.654 598.572,873.706 599.478,873.706C600.383,873.706 601.825,873.478 601.825,871.359" style="fill:none;stroke:white;stroke-width:1.52px;"/>
                    </g>
                    <g transform="matrix(1.06538,1.99698e-17,2.46695e-17,1.51756,50.5853,-704.465)">
                        <path d="M596.521,875.383L606.881,872.052L617.149,874.614L612.449,879.95L606.872,880.586L600.861,879.172L596.521,875.383Z" style="fill:white;"/>
                    </g>
                </g>
            </g>
        </g>
    </g>
</svg>
