<?xml version="1.0" encoding="UTF-8" standalone="no"?>
<!DOCTYPE svg PUBLIC "-//W3C//DTD SVG 1.1//EN" "http://www.w3.org/Graphics/SVG/1.1/DTD/svg11.dtd">
<svg width="100%" height="100%" viewBox="0 0 100 100" version="1.1" xmlns="http://www.w3.org/2000/svg" xmlns:xlink="http://www.w3.org/1999/xlink" xml:space="preserve" xmlns:serif="http://www.serif.com/" style="fill-rule:evenodd;clip-rule:evenodd;stroke-linecap:round;stroke-linejoin:round;stroke-miterlimit:3;">
    <g transform="matrix(1,0,0,1,-1079.34,-846.147)">
        <g transform="matrix(1,0,0,1,-90,250)">
            <g id="Solver--Large-" serif:id="Solver (Large)" transform="matrix(1,0,0,1,229.992,0)">
                <g transform="matrix(0.824016,0,0,0.8483,191.428,-124.996)">
                    <path d="M1019.88,870.136L1019.88,896.497C1019.88,903.367 1014.14,908.944 1007.06,908.944L981.436,908.944C974.364,908.944 968.622,903.367 968.622,896.497L968.622,870.136C968.622,863.266 974.364,857.689 981.436,857.689L1007.06,857.689C1014.14,857.689 1019.88,863.266 1019.88,870.136Z" style="fill:rgb(168,168,168);"/>
                </g>
                <g transform="matrix(0.824016,0,0,0.8483,148.995,-82.2549)">
                    <path d="M1019.88,870.136L1019.88,896.497C1019.88,903.367 1014.14,908.944 1007.06,908.944L981.436,908.944C974.364,908.944 968.622,903.367 968.622,896.497L968.622,870.136C968.622,863.266 974.364,857.689 981.436,857.689L1007.06,857.689C1014.14,857.689 1019.88,863.266 1019.88,870.136Z" style="fill:rgb(255,200,0);"/>
                </g>
                <g transform="matrix(0.824016,0,0,0.8483,191.474,-82.0909)">
                    <path d="M1019.88,870.136L1019.88,896.497C1019.88,903.367 1014.14,908.944 1007.06,908.944L981.436,908.944C974.364,908.944 968.622,903.367 968.622,896.497L968.622,870.136C968.622,863.266 974.364,857.689 981.436,857.689L1007.06,857.689C1014.14,857.689 1019.88,863.266 1019.88,870.136Z" style="fill:rgb(0,209,61);"/>
                </g>
                <g transform="matrix(0.824016,0,0,0.8483,148.202,-125.162)">
                    <path d="M1019.88,870.136L1019.88,896.497C1019.88,903.367 1014.14,908.944 1007.06,908.944L981.436,908.944C974.364,908.944 968.622,903.367 968.622,896.497L968.622,870.136C968.622,863.266 974.364,857.689 981.436,857.689L1007.06,857.689C1014.14,857.689 1019.88,863.266 1019.88,870.136Z" style="fill:white;"/>
                </g>
                <g transform="matrix(1.51488,0,0,1.51488,-347.309,-685.661)">
                    <path d="M915.346,862.647L915.346,895.645C915.346,904.752 907.953,912.145 898.847,912.145L865.848,912.145C856.742,912.145 849.349,904.752 849.349,895.645L849.349,862.647C849.349,853.54 856.742,846.147 865.848,846.147L898.847,846.147C907.953,846.147 915.346,853.54 915.346,862.647ZM909.075,862.647C909.075,857.001 904.492,852.418 898.847,852.418L865.848,852.418C860.203,852.418 855.62,857.001 855.62,862.647L855.62,895.645C855.62,901.29 860.203,905.873 865.848,905.873L898.847,905.873C904.492,905.873 909.075,901.29 909.075,895.645L909.075,862.647Z"/>
                </g>
                <g transform="matrix(1,0,0,1,88.4271,-249.763)">
                    <path d="M900.878,852.119L900.878,938.949" style="fill:none;stroke:black;stroke-width:9.5px;"/>
                </g>
                <g transform="matrix(-1.83697e-16,1,-1,-1.83697e-16,1884.84,-255.107)">
                    <path d="M900.878,852.119L900.878,938.949" style="fill:none;stroke:black;stroke-width:9.5px;"/>
                </g>
                <g id="Puzzle-White" serif:id="Puzzle White">
                    <g transform="matrix(1.39851,0,0,1.39851,-437.587,-603.187)">
                        <circle cx="1023.7" cy="877.158" r="7.866"/>
                    </g>
                    <g transform="matrix(1,0,0,1,-25.4336,-250)">
                        <rect x="1006.48" y="867.454" width="3.519" height="12.298" style="fill:white;"/>
                    </g>
                    <g transform="matrix(0.950026,0,0,1.12321,25.4705,-358.076)">
                        <rect x="1007.18" y="870.141" width="12.346" height="7.082" style="fill:white;"/>
                    </g>
                    <g transform="matrix(1,0,0,1,-17.13,-250.695)">
                        <circle cx="1011.17" cy="873.943" r="3.979" style="fill:white;"/>
                    </g>
                </g>
                <g id="Puzzle-Gray" serif:id="Puzzle Gray" transform="matrix(6.12323e-17,1,-1,6.12323e-17,1635.83,-343.561)">
                    <g transform="matrix(1.39851,0,0,1.39851,-437.587,-603.187)">
                        <circle cx="1023.7" cy="877.158" r="7.866"/>
                    </g>
                    <g transform="matrix(1,0,0,1,-25.4336,-250)">
                        <rect x="1006.48" y="867.454" width="3.519" height="12.298" style="fill:rgb(168,168,168);"/>
                    </g>
                    <g transform="matrix(0.950026,0,0,1.12321,25.4705,-358.076)">
                        <rect x="1007.18" y="870.141" width="12.346" height="7.082" style="fill:rgb(168,168,168);"/>
                    </g>
                    <g transform="matrix(1,0,0,1,-17.13,-250.695)">
                        <circle cx="1011.17" cy="873.943" r="3.979" style="fill:rgb(168,168,168);"/>
                    </g>
                </g>
                <g id="Puzzle-Yellow" serif:id="Puzzle Yellow" transform="matrix(6.12323e-17,-1,1,6.12323e-17,342.565,1635.1)">
                    <g transform="matrix(1.39851,0,0,1.39851,-437.587,-603.187)">
                        <circle cx="1023.7" cy="877.158" r="7.866"/>
                    </g>
                    <g transform="matrix(1,0,0,1,-25.4336,-250)">
                        <rect x="1006.48" y="867.454" width="3.519" height="12.298" style="fill:rgb(255,200,0);"/>
                    </g>
                    <g transform="matrix(0.950026,0,0,1.12321,25.4705,-358.076)">
                        <rect x="1007.18" y="870.141" width="12.346" height="7.082" style="fill:rgb(255,200,0);"/>
                    </g>
                    <g transform="matrix(1,0,0,1,-17.13,-250.695)">
                        <circle cx="1011.17" cy="873.943" r="3.979" style="fill:rgb(255,200,0);"/>
                    </g>
                </g>
                <g id="Puzzle-Green" serif:id="Puzzle Green" transform="matrix(-1,1.22465e-16,-1.22465e-16,-1,1978.63,1293.53)">
                    <g transform="matrix(1.39851,0,0,1.39851,-437.587,-603.187)">
                        <circle cx="1023.7" cy="877.158" r="7.866"/>
                    </g>
                    <g transform="matrix(1,0,0,1,-25.4336,-250)">
                        <rect x="1006.48" y="867.454" width="3.519" height="12.298" style="fill:rgb(0,209,61);"/>
                    </g>
                    <g transform="matrix(0.950026,0,0,1.12321,25.4705,-358.076)">
                        <rect x="1007.18" y="870.141" width="12.346" height="7.082" style="fill:rgb(0,209,61);"/>
                    </g>
                    <g transform="matrix(1,0,0,1,-17.13,-250.695)">
                        <circle cx="1011.17" cy="873.943" r="3.979" style="fill:rgb(0,209,61);"/>
                    </g>
                </g>
            </g>
        </g>
    </g>
</svg>
